<svg version="1.1" id="Layer_1" xmlns="http://www.w3.org/2000/svg" xmlns:xlink="http://www.w3.org/1999/xlink" x="0px" y="0px"
	 width="100%" viewBox="0 0 354 354" enable-background="new 0 0 354 354" xml:space="preserve">
<path fill="#20409A" opacity="1.000000" stroke="none" 
	d="
M355.000000,152.000000 
	C355.000000,169.354233 355.000000,186.708450 354.591003,204.469788 
	C353.794800,205.540924 353.146667,206.172150 353.058472,206.873764 
	C350.737366,225.337418 344.831604,242.729507 336.303345,259.112671 
	C324.535675,281.718842 308.855133,301.171844 288.633087,317.044647 
	C265.924377,334.869293 240.631607,346.580566 212.364487,352.124084 
	C209.819534,352.623169 207.450653,354.020081 205.000000,355.000000 
	C187.312439,355.000000 169.624878,355.000000 151.530258,354.591095 
	C148.522827,353.463562 145.956299,352.573700 143.317017,352.051910 
	C101.452271,343.775726 66.853310,323.011230 39.934559,290.160431 
	C20.136883,266.000000 7.341643,238.287781 2.914171,207.049698 
	C2.806677,206.291275 1.661305,205.679932 1.000005,205.000000 
	C1.000000,187.645767 1.000000,170.291550 1.408999,152.530212 
	C2.547297,149.189728 3.413020,146.282639 3.983943,143.318756 
	C7.941290,122.774628 15.504199,103.652206 26.532808,85.895042 
	C37.591366,68.089661 51.186722,52.621399 67.744942,39.617989 
	C86.525505,24.869345 107.277870,14.218498 130.272049,8.080432 
	C139.695633,5.564902 149.400284,4.102355 159.441269,2.090178 
	C172.277954,2.066634 184.650467,2.113711 197.285461,2.468889 
	C202.580734,3.508417 207.654114,4.031728 212.639923,5.004020 
	C254.533798,13.173797 289.160034,33.951984 316.046082,66.836922 
	C335.803131,91.002182 348.711914,118.682793 353.086060,149.949890 
	C353.192078,150.707672 354.338715,151.319885 355.000000,152.000000 
M252.507401,232.672821 
	C276.653931,208.417542 300.800476,184.162262 324.284729,160.572220 
	C299.865509,135.899292 275.648590,111.430786 250.529282,86.050514 
	C226.487564,110.430443 202.421249,134.835312 177.729553,158.888672 
	C153.349442,134.641891 128.969330,110.395119 104.895844,86.453300 
	C80.208763,111.196892 55.905788,135.555496 32.361210,159.153961 
	C80.809776,207.871109 129.502197,256.833466 179.589828,307.198761 
	C180.570770,305.571594 181.323486,303.567963 182.695343,302.173309 
	C190.050018,294.696655 197.589417,287.402191 205.008224,279.988007 
	C220.663025,264.342957 236.282608,248.662674 252.507401,232.672821 
z"/>
<path fill="#000000" opacity="1.000000" stroke="none" 
	d="
M355.000000,151.531342 
	C354.338715,151.319885 353.192078,150.707672 353.086060,149.949890 
	C348.711914,118.682793 335.803131,91.002182 316.046082,66.836922 
	C289.160034,33.951984 254.533798,13.173797 212.639923,5.004020 
	C207.654114,4.031728 202.580734,3.508417 197.748993,2.394240 
	C250.300034,2.007659 302.650024,2.003829 355.000000,2.000000 
	C355.000000,51.687561 355.000000,101.375122 355.000000,151.531342 
z"/>
<path fill="#000000" opacity="1.000000" stroke="none" 
	d="
M158.977081,2.160799 
	C149.400284,4.102355 139.695633,5.564902 130.272049,8.080432 
	C107.277870,14.218498 86.525505,24.869345 67.744942,39.617989 
	C51.186722,52.621399 37.591366,68.089661 26.532808,85.895042 
	C15.504199,103.652206 7.941290,122.774628 3.983943,143.318756 
	C3.413020,146.282639 2.547297,149.189728 1.408999,152.061554 
	C1.000000,102.312439 1.000000,52.624878 1.468657,2.468657 
	C30.854786,2.000000 59.772274,1.979489 88.689720,2.006444 
	C112.118866,2.028284 135.547958,2.107199 158.977081,2.160799 
z"/>
<path fill="#000000" opacity="1.000000" stroke="none" 
	d="
M1.000005,205.468658 
	C1.661305,205.679932 2.806677,206.291275 2.914171,207.049698 
	C7.341643,238.287781 20.136883,266.000000 39.934559,290.160431 
	C66.853310,323.011230 101.452271,343.775726 143.317017,352.051910 
	C145.956299,352.573700 148.522827,353.463562 151.061600,354.591095 
	C101.072998,355.000000 51.145996,355.000000 1.000000,355.000000 
	C1.000000,305.312653 1.000000,255.624985 1.000005,205.468658 
z"/>
<path fill="#000000" opacity="1.000000" stroke="none" 
	d="
M205.468658,355.000000 
	C207.450653,354.020081 209.819534,352.623169 212.364487,352.124084 
	C240.631607,346.580566 265.924377,334.869293 288.633087,317.044647 
	C308.855133,301.171844 324.535675,281.718842 336.303345,259.112671 
	C344.831604,242.729507 350.737366,225.337418 353.058472,206.873764 
	C353.146667,206.172150 353.794800,205.540924 354.591003,204.938446 
	C355.000000,254.927002 355.000000,304.854004 355.000000,355.000000 
	C305.312653,355.000000 255.624985,355.000000 205.468658,355.000000 
z"/>
<path fill="#FFFFFF" opacity="1.000000" stroke="none" 
	d="
M159.441269,2.090178 
	C135.547958,2.107199 112.118866,2.028284 88.689720,2.006444 
	C59.772274,1.979489 30.854786,2.000000 1.468657,2.000000 
	C2.500000,1.666667 3.999809,1.042699 5.500027,1.041714 
	C78.166656,0.994000 150.833328,1.000000 223.500000,1.000000 
	C267.333344,1.000000 311.166656,1.000000 355.000000,1.500000 
	C302.650024,2.003829 250.300034,2.007659 197.486511,2.086138 
	C184.650467,2.113711 172.277954,2.066634 159.441269,2.090178 
z"/>
<path fill="#16C1F3" opacity="1.000000" stroke="none" 
	d="
M251.916641,232.996857 
	C236.282608,248.662674 220.663025,264.342957 205.008224,279.988007 
	C197.589417,287.402191 190.050018,294.696655 182.695343,302.173309 
	C181.323486,303.567963 180.570770,305.571594 179.589828,307.198761 
	C129.502197,256.833466 80.809776,207.871109 32.361210,159.153961 
	C55.905788,135.555496 80.208763,111.196892 104.895844,86.453300 
	C128.969330,110.395119 153.349442,134.641891 178.196838,159.321472 
	C203.081619,184.168472 227.499130,208.582657 251.916641,232.996857 
z"/>
<path fill="#C9DA2B" opacity="1.000000" stroke="none" 
	d="
M252.212021,232.834839 
	C227.499130,208.582657 203.081619,184.168472 178.509521,159.497223 
	C202.421249,134.835312 226.487564,110.430443 250.529282,86.050514 
	C275.648590,111.430786 299.865509,135.899292 324.284729,160.572220 
	C300.800476,184.162262 276.653931,208.417542 252.212021,232.834839 
z"/>
</svg>